<?xml version="1.0" encoding="utf-8"?>
<!-- Generator: Adobe Illustrator 25.2.0, SVG Export Plug-In . SVG Version: 6.00 Build 0)  -->
<svg version="1.1" id="Calque_1" xmlns="http://www.w3.org/2000/svg" xmlns:xlink="http://www.w3.org/1999/xlink" x="0px" y="0px"
	 viewBox="0 0 398.5 486.9" style="enable-background:new 0 0 398.5 486.9;" xml:space="preserve">
<style type="text/css">
	.st0{fill:#E53E16;}
	.st1{fill:#FFFFFF;}
</style>
<g>
	<path class="st0" d="M398.5,351.6c0,25.9-21,46.9-46.9,46.9H46.9C21,398.5,0,377.5,0,351.6V46.9C0,21,21,0,46.9,0h304.8
		c25.9,0,46.9,21,46.9,46.9V351.6z"/>
	<g>
		<path d="M258.6,437.5h7c6.3,0,10.7,4.4,10.7,10.1v0.1c0,5.7-4.4,10.1-10.7,10.1h-7V437.5z M265.6,455.6c5.1,0,8.4-3.5,8.4-7.9
			v-0.1c0-4.5-3.3-8-8.4-8h-4.7v16H265.6z"/>
		<path d="M287.3,437.3h2.1l9.2,20.3h-2.5l-2.4-5.3h-11l-2.4,5.3h-2.3L287.3,437.3z M292.9,450.3l-4.6-10.3l-4.6,10.3H292.9z"/>
		<path d="M305.4,439.6h-6.8v-2.1h15.9v2.1h-6.8v18.1h-2.3V439.6z"/>
		<path d="M323.6,437.3h2.1l9.2,20.3h-2.5l-2.4-5.3h-11l-2.4,5.3h-2.3L323.6,437.3z M329.2,450.3l-4.6-10.3l-4.6,10.3H329.2z"/>
		<path d="M64,466.3h2.3v20.2H64V466.3z"/>
		<path d="M72.2,466.3h2.1l12.7,16.2v-16.2h2.2v20.2h-1.8l-13-16.6v16.6h-2.2V466.3z"/>
		<path d="M95,466.3h14.5v2.1H97.3v7.2h10.9v2.1H97.3v8.8H95V466.3z"/>
		<path d="M113.9,466.3h8.7c2.5,0,4.5,0.8,5.7,2c1,1,1.6,2.4,1.6,4v0.1c0,3.4-2.3,5.3-5.5,5.9l6.2,8.3h-2.8l-5.9-7.9h-0.1h-5.7v7.9
			h-2.3V466.3z M122.4,476.6c3,0,5.2-1.6,5.2-4.2v-0.1c0-2.5-1.9-4-5.2-4h-6.2v8.2H122.4z"/>
		<path d="M142.3,466.2h2.1l9.2,20.3h-2.5l-2.4-5.3h-11l-2.4,5.3h-2.3L142.3,466.2z M147.9,479.1l-4.6-10.3l-4.6,10.3H147.9z"/>
		<path d="M155.9,483.6l1.4-1.7c2.1,1.9,4.1,2.9,6.9,2.9c2.7,0,4.5-1.4,4.5-3.4v-0.1c0-1.9-1-2.9-5.3-3.8c-4.6-1-6.8-2.5-6.8-5.8
			v-0.1c0-3.2,2.8-5.5,6.6-5.5c2.9,0,5,0.8,7.1,2.5l-1.3,1.8c-1.9-1.5-3.8-2.2-5.8-2.2c-2.6,0-4.3,1.4-4.3,3.2v0.1
			c0,1.9,1,3,5.5,3.9c4.5,1,6.6,2.6,6.6,5.7v0.1c0,3.5-2.9,5.7-6.9,5.7C161,486.8,158.3,485.7,155.9,483.6z"/>
		<path d="M180.6,468.4h-6.8v-2.1h15.9v2.1h-6.8v18.1h-2.3V468.4z"/>
		<path d="M194,466.3h8.7c2.5,0,4.5,0.8,5.7,2c1,1,1.6,2.4,1.6,4v0.1c0,3.4-2.3,5.3-5.5,5.9l6.2,8.3h-2.8l-5.9-7.9H202h-5.7v7.9H194
			V466.3z M202.5,476.6c3,0,5.2-1.6,5.2-4.2v-0.1c0-2.5-1.9-4-5.2-4h-6.2v8.2H202.5z"/>
		<path d="M214.6,478.1v-11.8h2.3v11.6c0,4.4,2.3,6.8,6.2,6.8c3.7,0,6.1-2.3,6.1-6.7v-11.8h2.3v11.6c0,5.9-3.4,8.9-8.4,8.9
			C218,486.8,214.6,483.8,214.6,478.1z"/>
		<path d="M235.9,476.5L235.9,476.5c0-5.8,4.3-10.5,10.2-10.5c3.7,0,5.9,1.3,7.9,3.2l-1.6,1.7c-1.7-1.6-3.6-2.8-6.3-2.8
			c-4.5,0-7.8,3.6-7.8,8.3v0.1c0,4.7,3.4,8.3,7.8,8.3c2.8,0,4.6-1.1,6.5-2.9l1.5,1.5c-2.1,2.1-4.4,3.5-8.1,3.5
			C240.2,486.9,235.9,482.3,235.9,476.5z"/>
		<path d="M263.4,468.4h-6.8v-2.1h15.9v2.1h-6.8v18.1h-2.3V468.4z"/>
		<path d="M276.5,478.1v-11.8h2.3v11.6c0,4.4,2.3,6.8,6.2,6.8c3.7,0,6.1-2.3,6.1-6.7v-11.8h2.3v11.6c0,5.9-3.4,8.9-8.4,8.9
			C279.9,486.8,276.5,483.8,276.5,478.1z"/>
		<path d="M298.7,466.3h8.7c2.5,0,4.5,0.8,5.7,2c1,1,1.6,2.4,1.6,4v0.1c0,3.4-2.3,5.3-5.5,5.9l6.2,8.3h-2.8l-5.8-7.9h-0.1H301v7.9
			h-2.3V466.3z M307.2,476.6c3,0,5.2-1.6,5.2-4.2v-0.1c0-2.5-1.9-4-5.2-4H301v8.2H307.2z"/>
		<path d="M319.6,466.3h14.6v2.1h-12.3v6.9h11v2.1h-11v7.1h12.5v2.1h-14.7V466.3z"/>
	</g>
	<g>
		<path class="st1" d="M63.7,38.8H102c22.6,0,37.2,11.6,37.2,31.4v0.3c0,21.1-16.2,32.2-38.4,32.2H88.5v25.5H63.7V38.8z M100.2,83.2
			c8.8,0,14.2-4.6,14.2-11.6v-0.3c0-7.7-5.4-11.7-14.3-11.7H88.5v23.6H100.2z"/>
		<path class="st1" d="M149.6,38.8h42.3c13.7,0,23.1,3.6,29.1,9.7c5.2,5.1,7.9,12,7.9,20.8v0.2c0,13.7-7.3,22.7-18.4,27.5l21.3,31.2
			h-28.6l-18-27.1H185h-10.6v27.1h-24.8V38.8z M190.7,81.7c8.4,0,13.3-4.1,13.3-10.6v-0.3c0-7-5.1-10.6-13.4-10.6h-16.2v21.5H190.7z
			"/>
		<path class="st1" d="M238.3,83.7v-0.3c0-25.7,20.7-46.5,48.3-46.5c27.6,0,48,20.6,48,46.2v0.3c0,25.7-20.7,46.5-48.3,46.5
			C258.7,130,238.3,109.4,238.3,83.7z M309.3,83.7v-0.3c0-12.9-9.3-24.1-23-24.1c-13.5,0-22.6,11-22.6,23.9v0.3
			c0,12.9,9.3,24.1,22.9,24.1C300.3,107.6,309.3,96.6,309.3,83.7z"/>
		<path class="st1" d="M161.1,199.5v-0.3c0-26.1,20.4-46.5,48.1-46.5c15.7,0,26.8,4.9,36.3,13l-14.6,17.5
			c-6.4-5.4-12.8-8.4-21.6-8.4c-12.9,0-22.9,10.9-22.9,24.5v0.3c0,14.4,10.1,24.8,24.3,24.8c6,0,10.6-1.3,14.3-3.7v-10.9h-17.6
			v-18.1h41.1V232c-9.5,7.8-22.6,13.8-38.8,13.8C181.9,245.7,161.1,226.6,161.1,199.5z"/>
		<path class="st1" d="M262.3,154.6h71.9v21.1h-47.4v13.5h42.9v19.5h-42.9v14.2h48V244h-72.5V154.6z"/>
		<path class="st1" d="M143.7,270.3h34.5c31.9,0,50.4,18.4,50.4,44.2v0.2c0,25.8-18.8,45-51,45h-34V270.3z M178.6,337.8
			c14.8,0,24.6-8.2,24.6-22.6v-0.3c0-14.3-9.8-22.6-24.6-22.6h-10.1v45.5H178.6z"/>
		<path class="st1" d="M238.3,315.3V315c0-25.7,20.7-46.5,48.3-46.5c27.6,0,48,20.6,48,46.2v0.3c0,25.7-20.7,46.5-48.3,46.5
			C258.7,361.5,238.3,341,238.3,315.3z M309.3,315.3V315c0-12.9-9.3-24.1-23-24.1c-13.5,0-22.6,11-22.6,23.9v0.3
			c0,12.9,9.3,24.1,22.9,24.1C300.3,339.2,309.3,328.2,309.3,315.3z"/>
	</g>
</g>
</svg>
